<svg height='100px' width='100px'  fill="#000000" xmlns="http://www.w3.org/2000/svg" viewBox="0 0 48 48" x="0px" y="0px"><title>Bleach</title><g><path d="M33.08,25.06a2.72,2.72,0,0,1-.8-3.39l1.47-2.93a5,5,0,0,0-.57-5.36L31,10.65c0-1.39.31-3.64-2-4.47V1a1,1,0,0,0-1-1H20a1,1,0,0,0-1,1V6.18A3,3,0,0,0,17,9v1.65l-2.18,2.73a5,5,0,0,0-.57,5.36l1.47,2.93a2.72,2.72,0,0,1-.8,3.39A4.83,4.83,0,0,0,13,28.9V47a1,1,0,0,0,1,1H34a1,1,0,0,0,1-1V28.9A4.83,4.83,0,0,0,33.08,25.06ZM15,30H33V42H15ZM21,2h6V6H21ZM19,9a1,1,0,0,1,1-1h8a1,1,0,0,1,1,1v1H28a1,1,0,0,0-2,0H25a1,1,0,0,0-2,0H22a1,1,0,0,0-2,0H19ZM16.12,26.66a4.72,4.72,0,0,0,1.39-5.88L16,17.84a3,3,0,0,1,.34-3.21L18.48,12h11l2.1,2.63A3,3,0,0,1,32,17.84l-1.47,2.94a4.72,4.72,0,0,0,1.39,5.88A2.79,2.79,0,0,1,32.83,28H15.17A2.79,2.79,0,0,1,16.12,26.66ZM15,46V44H33v2Z"></path><path d="M21,35V34a1,1,0,0,0-2,0v1A1,1,0,0,0,21,35Z"></path><path d="M23,36H22a1,1,0,0,0,0,2h1A1,1,0,0,0,23,36Z"></path><path d="M19,39v1a1,1,0,0,0,2,0V39A1,1,0,0,0,19,39Z"></path><path d="M18,36H17a1,1,0,0,0,0,2h1A1,1,0,0,0,18,36Z"></path><path d="M31,31H30a1,1,0,0,0,0,2h1A1,1,0,0,0,31,31Z"></path><path d="M27,34v1a1,1,0,0,0,2,0V34A1,1,0,0,0,27,34Z"></path><path d="M26,31H25a1,1,0,0,0,0,2h1A1,1,0,0,0,26,31Z"></path></g></svg>