<svg height='100px' width='100px'  fill="#000000" xmlns="http://www.w3.org/2000/svg" xmlns:xlink="http://www.w3.org/1999/xlink" version="1.1" x="0px" y="0px" viewBox="0 0 48 48" enable-background="new 0 0 48 48" xml:space="preserve"><g><path d="M45.57,14.744h-0.305v9.114h0.305c1.336,0,2.43-1.093,2.43-2.431v-4.253C48,15.838,46.906,14.744,45.57,14.744z"></path><path d="M41.24,9.428H15.047V4.623h-0.904v4.805h-0.852v13.52h-2.734V9.428H4.101c-1.336,0-2.43,1.094-2.43,2.431l1.873,15.835   h3.548v1.481h2.601v3.646h1.102v-3.646h2.601v-1.481h2.175v-4.536c0-1.661,1.093-3.021,2.43-3.021h9.646   c1.337,0,2.431,1.359,2.431,3.021v11.106H3.038C1.367,34.264,0,35.357,0,36.693c0,1.338,1.367,2.432,3.038,2.432h1.595v4.252   h39.038v-8.354v-0.76V11.858C43.671,10.521,42.577,9.428,41.24,9.428z M35.283,19.833c-2.076,0-3.759-1.684-3.759-3.76   s1.683-3.76,3.759-3.76s3.76,1.684,3.76,3.76S37.359,19.833,35.283,19.833z"></path></g></svg>