<svg height='100px' width='100px'  fill="#000000" xmlns="http://www.w3.org/2000/svg" data-name="Layer 1" viewBox="0 0 100 100" x="0px" y="0px"><title>Noun_Project_100Icon_10px_grid (이기범_블랙)</title><path d="M36.14746,44.12988A1.18469,1.18469,0,0,1,34.978,43.167a8.6066,8.6066,0,0,0-6.76172-6.76221,1.1913,1.1913,0,0,1,.00146-2.33887A8.60624,8.60624,0,0,0,34.978,27.3042a1.19123,1.19123,0,0,1,2.33838-.00049,8.60737,8.60737,0,0,0,6.76074,6.76221h0a1.19135,1.19135,0,0,1,.002,2.33887,8.60717,8.60717,0,0,0-6.7627,6.76172A1.18451,1.18451,0,0,1,36.14746,44.12988Zm-5.123-8.89453a10.59142,10.59142,0,0,1,5.12256,5.123,10.59136,10.59136,0,0,1,5.12354-5.123,10.59038,10.59038,0,0,1-5.123-5.123A10.59038,10.59038,0,0,1,31.02441,35.23535Zm12.65918.7915.00293.001Zm-15.07129,0-.00244.00049Z"></path><path d="M63.85254,54.375a1.18455,1.18455,0,0,1-1.16895-.96289,8.6071,8.6071,0,0,0-6.76221-6.7627A1.19123,1.19123,0,0,1,55.9209,44.311a8.60589,8.60589,0,0,0,6.7627-6.76172,1.19123,1.19123,0,0,1,2.33838-.00049A8.606,8.606,0,0,0,71.78369,44.311h.00049a1.19135,1.19135,0,0,1-.002,2.33887A8.60624,8.60624,0,0,0,65.022,53.41162,1.18465,1.18465,0,0,1,63.85254,54.375Zm-5.123-8.89453a10.58836,10.58836,0,0,1,5.123,5.123,10.59038,10.59038,0,0,1,5.123-5.123,10.5894,10.5894,0,0,1-5.12256-5.123A10.59136,10.59136,0,0,1,58.72949,45.48047Zm12.65771.791.00244.00049Zm.00293-1.583-.002.00049ZM56.31348,44.688l.00244.00049Z"></path><path d="M41.8584,73.65918a1.18455,1.18455,0,0,1-1.16895-.96289,8.6071,8.6071,0,0,0-6.76221-6.7627,1.19123,1.19123,0,0,1-.00049-2.33838,8.60716,8.60716,0,0,0,6.7627-6.76172,1.19123,1.19123,0,0,1,2.33838-.00049A8.60716,8.60716,0,0,0,49.79,63.59521h.00049a1.19135,1.19135,0,0,1-.002,2.33887,8.60617,8.60617,0,0,0-6.76074,6.76172A1.18465,1.18465,0,0,1,41.8584,73.65918Zm-5.123-8.89453a10.58635,10.58635,0,0,1,5.123,5.123,10.59136,10.59136,0,0,1,5.12354-5.123,10.59038,10.59038,0,0,1-5.123-5.123A10.59136,10.59136,0,0,1,36.73535,64.76465Zm12.65723.79053.00342.001Zm.00391-1.58252-.00244.00049Zm-15.07715-.00049.00244.00049Z"></path></svg>