<svg height='100px' width='100px'  fill="#000000" xmlns="http://www.w3.org/2000/svg" xmlns:xlink="http://www.w3.org/1999/xlink" xmlns:sketch="http://www.bohemiancoding.com/sketch/ns" viewBox="0 0 30 30" version="1.1" x="0px" y="0px"><title>file_text_document_page_paper-broken-damaged</title><desc>Created with Sketch.</desc><g stroke="none" stroke-width="1" fill="none" fill-rule="evenodd" sketch:type="MSPage"><g sketch:type="MSArtboardGroup" transform="translate(-540.000000, -270.000000)" fill="#000000"><path d="M563,288.419304 L563,296 L547,296 L547,286.978771 L549.378461,286.874494 L552.609216,289.870729 L555.97833,287.104663 L558.995886,291.215533 L563,288.419304 Z M547,285.429997 L547,274 L558,274 L558,274 L558,279 L563,279 L563,283.76114 L559.739103,286.437709 L556.777857,282.544438 L552.780103,285.466542 L549.472762,283.361882 L547,285.429997 Z M563,285.047097 L563,285.051762 L564,284.248385 L564,278 L559,273 L546,273 L546,297 L564,297 L564,286.494363 L563.540384,286.823132 L563.540043,286.822467 L559.240063,289.858237 L556.144384,285.640938 L552.661066,288.554965 L549.750445,285.855625 L547.957672,285.934984 L549.556871,284.600713 L552.823484,286.679455 L556.576924,283.932093 L559.55754,287.850831 L563,285.047097 Z M559,274.4 L562.6,278 L559,278 L559,274.4 L559,274.4 Z" sketch:type="MSShapeGroup"></path></g></g></svg>