<svg height='100px' width='100px'  fill="#000000" xmlns="http://www.w3.org/2000/svg" xmlns:xlink="http://www.w3.org/1999/xlink" viewBox="0 0 24 24" version="1.1" x="0px" y="0px"><title>i24_photoedit_fade</title><desc>Created with Sketch.</desc><g stroke="none" stroke-width="1" fill="none" fill-rule="evenodd" transform="translate(-99.000000, -923.000000)"><g transform="translate(99.000000, 923.000000)" fill="#000000"><path d="M5.38543901,19.5 C4.87418593,19.0487587 4.40942728,18.5460573 3.9992684,18 L20.0007357,18 C19.5905727,18.5460573 19.1258141,19.0487587 18.614561,19.5 L5.38543901,19.5 Z M7.63587473,21 C8.95463723,21.6406581 10.4353542,22 12,22 C13.5646458,22 15.0453628,21.6406581 16.3641253,21 L7.63587473,21 Z M3.0672914,16.5 C2.82542746,16.0208326 2.62098429,15.5195525 2.45780228,15 L21.5421977,15 C21.3790157,15.5195525 21.1745725,16.0208326 20.9327086,16.5 L3.0672914,16.5 Z M2.11175041,13.5 C2.03814983,13.0107098 2,12.5098101 2,12 C2,6.4771525 6.4771525,2 12,2 C17.5228475,2 22,6.4771525 22,12 C22,12.5098101 21.9618502,13.0107098 21.8882496,13.5 L2.11175041,13.5 Z"></path></g></g></svg>