<svg height='100px' width='100px'  fill="#000000" xmlns="http://www.w3.org/2000/svg" data-name="Layer 1" viewBox="0 0 80 80" x="0px" y="0px"><title>settings-preferences-conflict-inconsistency-mismatch</title><path d="M20,63a6,6,0,1,0-6-6A6.0066,6.0066,0,0,0,20,63Zm0-8a2,2,0,1,1-2,2A2.002,2.002,0,0,1,20,55Z"></path><path d="M6.4854,63.4014l1.2495,2.1845a3.65,3.65,0,0,0,2.88,1.8282l2.72.2153q.4131.2629.85.4932l1.5512,2.28A3.6465,3.6465,0,0,0,18.751,72h2.498a3.6464,3.6464,0,0,0,3.0156-1.5986l1.5508-2.2788q.4359-.2307.85-.4932l2.72-.2153a3.65,3.65,0,0,0,2.88-1.8291l1.2495-2.1841a3.6827,3.6827,0,0,0,.1319-3.4L32.4692,57.51c.0083-.1695.0137-.3394.0137-.51s-.0054-.3423-.0137-.51L33.647,53.999a3.6837,3.6837,0,0,0-.1324-3.4l-1.25-2.1845a3.65,3.65,0,0,0-2.88-1.8282l-2.72-.2153q-.4139-.2622-.8491-.4922l-1.5522-2.2807A3.6465,3.6465,0,0,0,21.249,42H18.751a3.6446,3.6446,0,0,0-3.0152,1.5981l-1.5522,2.28q-.435.23-.8491.4922l-2.72.2153a3.65,3.65,0,0,0-2.88,1.8291l-1.25,2.1841a3.6827,3.6827,0,0,0-.1319,3.4L7.5308,56.49c-.0083.169-.0137.3394-.0137.51s.0054.3423.0137.51L6.353,60.001A3.6837,3.6837,0,0,0,6.4854,63.4014ZM11.5171,57c0-.1152.0044-.23.0107-.3462a3.7434,3.7434,0,0,0-.3462-1.8008L10.0405,52.44l1.0757-1.8809L13.748,50.35a3.6954,3.6954,0,0,0,1.6934-.58q.3157-.2014.6484-.375a3.71,3.71,0,0,0,1.3492-1.19L18.94,46h2.1206l1.501,2.2061A3.713,3.713,0,0,0,23.91,49.3955q.3331.1736.6489.375a3.6953,3.6953,0,0,0,1.6943.58l2.6309.2085L29.96,52.44l-1.1407,2.4121a3.752,3.752,0,0,0-.3466,1.8047c.0063.1137.0107.2285.0107.3437s-.0044.23-.0107.3462a3.7468,3.7468,0,0,0,.3462,1.8008L29.96,61.5605l-1.0757,1.8809L26.252,63.65a3.6981,3.6981,0,0,0-1.6944.58c-.21.1347-.4282.2607-.6494.3764A3.7,3.7,0,0,0,22.56,65.7969L21.0605,68H18.94l-1.4986-2.2021a3.6954,3.6954,0,0,0-1.3476-1.19q-.334-.175-.6534-.3794a3.7045,3.7045,0,0,0-1.6928-.5781l-2.6309-.2085-1.0757-1.8809,1.1407-2.4121a3.7518,3.7518,0,0,0,.3466-1.8046C11.5215,57.23,11.5171,57.1152,11.5171,57Z"></path><path d="M46.4854,63.4014l1.25,2.1845a3.65,3.65,0,0,0,2.88,1.8282l2.72.2153q.4131.2629.85.4932l1.5512,2.28A3.6465,3.6465,0,0,0,58.751,72h2.498a3.6464,3.6464,0,0,0,3.0156-1.5986l1.5508-2.2788q.4359-.2307.85-.4932l2.72-.2153a3.65,3.65,0,0,0,2.88-1.8291l1.2495-2.1841a3.6827,3.6827,0,0,0,.1319-3.4L72.4692,57.51c.0083-.1695.0137-.3394.0137-.51s-.0054-.3423-.0137-.51L73.647,53.999a3.6837,3.6837,0,0,0-.1324-3.4l-1.2495-2.1845a3.65,3.65,0,0,0-2.88-1.8282l-2.72-.2153q-.4138-.2622-.8491-.4922l-1.5522-2.2807A3.6465,3.6465,0,0,0,61.249,42H58.751a3.6446,3.6446,0,0,0-3.0152,1.5981l-1.5522,2.28q-.435.23-.8491.4922l-2.72.2153a3.65,3.65,0,0,0-2.88,1.8291l-1.2495,2.1841a3.6827,3.6827,0,0,0-.1319,3.4L47.5308,56.49c-.0083.169-.0137.3394-.0137.51s.0054.3423.0137.51L46.353,60.001A3.6837,3.6837,0,0,0,46.4854,63.4014ZM51.5171,57c0-.1152.0044-.23.0107-.3462a3.7434,3.7434,0,0,0-.3462-1.8008L50.0405,52.44l1.0757-1.8809L53.748,50.35a3.6954,3.6954,0,0,0,1.6934-.58q.3157-.2014.6484-.375a3.71,3.71,0,0,0,1.3492-1.19L58.94,46h2.1206l1.501,2.2061A3.713,3.713,0,0,0,63.91,49.3955q.3332.1736.6489.375a3.6953,3.6953,0,0,0,1.6943.58l2.6309.2085L69.96,52.44l-1.1407,2.4121a3.752,3.752,0,0,0-.3466,1.8047c.0063.1137.0107.2285.0107.3437s-.0044.23-.0107.3462a3.7468,3.7468,0,0,0,.3462,1.8008L69.96,61.5605l-1.0757,1.8809L66.252,63.65a3.6981,3.6981,0,0,0-1.6944.58c-.21.1347-.4282.2607-.6494.3764A3.7,3.7,0,0,0,62.56,65.7969L61.0605,68H58.94l-1.4986-2.2021a3.6954,3.6954,0,0,0-1.3476-1.19q-.334-.175-.6534-.3794a3.7045,3.7045,0,0,0-1.6928-.5781l-2.6309-.2085-1.0757-1.8809,1.1407-2.4121a3.7518,3.7518,0,0,0,.3466-1.8046C51.5215,57.23,51.5171,57.1152,51.5171,57Z"></path><path d="M60,63a6,6,0,1,0-6-6A6.0066,6.0066,0,0,0,60,63Zm0-8a2,2,0,1,1-2,2A2.002,2.002,0,0,1,60,55Z"></path><path d="M52.83,23H56a2.002,2.002,0,0,1,2,2V38a2,2,0,0,0,4,0V25a6.0066,6.0066,0,0,0-6-6H52.83a12.982,12.982,0,0,0-25.66,0H24a6.0066,6.0066,0,0,0-6,6V38a2,2,0,0,0,4,0V25a2.002,2.002,0,0,1,2-2h3.17a12.982,12.982,0,0,0,25.66,0ZM31,21a9,9,0,1,1,9,9A9.01,9.01,0,0,1,31,21Z"></path><path d="M42.1216,25.95A2,2,0,1,0,44.95,23.1216L42.8281,21,44.95,18.8784A2,2,0,1,0,42.1216,16.05L40,18.1719,37.8784,16.05A2,2,0,1,0,35.05,18.8784L37.1719,21,35.05,23.1216A2,2,0,1,0,37.8784,25.95L40,23.8281Z"></path></svg>