<svg height='100px' width='100px'  fill="#000000" xmlns="http://www.w3.org/2000/svg" xmlns:xlink="http://www.w3.org/1999/xlink" version="1.1" x="0px" y="0px" viewBox="0 0 100 100" style="enable-background:new 0 0 100 100;" xml:space="preserve"><polygon points="84,45.7 91.9,45.7 91.9,5.6 53.5,0.9 53.5,8.8 84,12.6 "></polygon><path d="M84,53.6C83.9,64.3,81.2,79,62.5,88.6c-0.5,0.2-1,0.4-1.5,0.6l-0.3,0.1c-2.2,0.8-4.7,1.4-7.2,1.7v7.9c3.4-0.3,6.8-1,9.8-2.2  c1-0.3,1.9-0.7,2.8-1.1c17-8.7,25.5-22.5,25.8-42.1H84z"></path><polygon points="15.2,45.6 15.2,12.6 45.6,8.8 45.6,0.9 7.3,5.6 7.3,45.6 "></polygon><path d="M38.2,89.2c-0.5-0.2-1-0.3-1.5-0.6c-9.1-4.7-21.1-13.4-21.5-35.1H7.3c0.3,19.6,8.7,33.3,25.8,42.1c0.9,0.5,1.8,0.8,2.8,1.1  c3,1.1,6.3,1.8,9.6,2.1v-7.9c-2.5-0.3-4.9-0.8-7-1.7L38.2,89.2z"></path><polygon points="65.6,40.4 59,33.8 49.6,43.2 40.2,33.8 33.7,40.4 43.1,49.8 33.7,59.2 40.2,65.7 49.6,56.3 59,65.7 65.6,59.2   56.2,49.8 "></polygon></svg>