<svg height='100px' width='100px'  fill="#FFFFFF" xmlns="http://www.w3.org/2000/svg" xmlns:xlink="http://www.w3.org/1999/xlink" version="1.1" x="0px" y="0px" viewBox="0 0 37 37" enable-background="new 0 0 37 37" xml:space="preserve"><path d="M11.854,22.115c-1.134,0-2.179,0.885-2.378,2.016c-0.102,0.574,0.04,1.143,0.389,1.559c0.349,0.415,0.858,0.645,1.436,0.645  c1.134,0,2.179-0.887,2.378-2.016c0.104-0.585-0.033-1.139-0.388-1.561C12.941,22.344,12.432,22.115,11.854,22.115z M12.615,24.131  c-0.107,0.608-0.71,1.123-1.315,1.123c-0.253,0-0.468-0.092-0.608-0.259c-0.145-0.173-0.199-0.413-0.152-0.677  c0.107-0.609,0.709-1.123,1.314-1.123c0.253,0,0.47,0.092,0.609,0.258C12.607,23.625,12.661,23.865,12.615,24.131z"></path><path d="M27.166,22.115c-1.135,0-2.18,0.885-2.379,2.016c-0.102,0.574,0.04,1.143,0.389,1.559c0.349,0.415,0.858,0.645,1.436,0.645  c1.135,0,2.179-0.887,2.379-2.016c0.103-0.585-0.035-1.139-0.389-1.561C28.253,22.344,27.742,22.115,27.166,22.115z M27.926,24.131  c-0.107,0.608-0.709,1.123-1.314,1.123c-0.252,0-0.469-0.092-0.608-0.259c-0.146-0.173-0.199-0.413-0.153-0.677  c0.108-0.609,0.711-1.123,1.316-1.123c0.252,0,0.469,0.092,0.607,0.258C27.919,23.625,27.973,23.865,27.926,24.131z"></path><path d="M30.062,13.895h-3.085c-0.262,0-0.486,0.188-0.531,0.446l-0.658,3.737c-0.029,0.157,0.015,0.318,0.117,0.441  c0.103,0.122,0.254,0.193,0.414,0.193h5.646c0.158,0,0.309-0.07,0.411-0.191s0.147-0.281,0.121-0.438  C32.334,17.102,31.674,13.895,30.062,13.895z M26.961,17.633l0.469-2.658h2.632c0.368,0,0.925,1.222,1.247,2.658H26.961z"></path><path d="M14.549,12.588c0.299,0,0.541-0.241,0.541-0.539c0-0.299-0.242-0.541-0.541-0.541H4.649c-0.298,0-0.54,0.242-0.54,0.541  c0,0.298,0.242,0.539,0.54,0.539H14.549z"></path><path d="M1.707,15.262h9.9c0.299,0,0.539-0.24,0.539-0.539s-0.24-0.541-0.539-0.541h-9.9c-0.299,0-0.539,0.242-0.539,0.541  S1.408,15.262,1.707,15.262z"></path><path d="M12.224,17.396c0-0.299-0.241-0.54-0.54-0.54h-9.9c-0.298,0-0.539,0.241-0.539,0.54s0.241,0.54,0.539,0.54h9.9  C11.982,17.937,12.224,17.695,12.224,17.396z"></path><path d="M35.52,21.793c-0.148-0.178-0.342-0.311-0.561-0.391l0.344-1.952c0.024-0.138,0.021-0.274-0.012-0.413l-1.102-4.557  c-0.006-0.029-0.016-0.057-0.027-0.084c-0.496-1.172-1.248-2.94-2.96-2.94h-3.993c-0.33,0-0.666,0.046-1.003,0.138l0.11-0.629  c0.099-0.556-0.039-1.105-0.377-1.508c-0.337-0.401-0.83-0.623-1.387-0.623H3.469c-0.299,0-0.54,0.242-0.54,0.54  s0.241,0.54,0.54,0.54h21.084c0.232,0,0.432,0.084,0.56,0.238c0.134,0.158,0.185,0.381,0.142,0.625l-2.298,13.031h-7.391  c0.043-0.888-0.217-1.711-0.759-2.358c-0.635-0.755-1.568-1.171-2.629-1.171c-2.02,0-3.951,1.557-4.464,3.529H5.789  c-0.232,0-0.431-0.084-0.561-0.238c-0.133-0.16-0.184-0.382-0.142-0.625l0.693-3.929H4.684l-0.66,3.741  c-0.098,0.555,0.041,1.104,0.379,1.508c0.338,0.401,0.83,0.623,1.387,0.623h1.793c0.013,0.791,0.273,1.521,0.765,2.106  c0.634,0.755,1.567,1.171,2.63,1.171c1.932,0,3.783-1.426,4.387-3.277h7.53c0.013,0.791,0.274,1.521,0.765,2.106  c0.635,0.755,1.568,1.171,2.631,1.171c1.932,0,3.783-1.426,4.387-3.277h3.34c0.813,0,1.563-0.635,1.705-1.443l0.088-0.5  C35.884,22.521,35.778,22.102,35.52,21.793z M14.449,24.131c-0.288,1.629-1.846,2.955-3.473,2.955c-0.737,0-1.377-0.278-1.803-0.785  c-0.437-0.52-0.604-1.225-0.47-1.982c0.288-1.631,1.846-2.959,3.474-2.959c0.736,0,1.376,0.279,1.801,0.785  C14.416,22.665,14.582,23.37,14.449,24.131z M29.76,24.131c-0.287,1.629-1.844,2.955-3.471,2.955c-0.738,0-1.378-0.278-1.803-0.785  c-0.438-0.52-0.604-1.225-0.471-1.982c0.289-1.631,1.846-2.959,3.474-2.959c0.737,0,1.376,0.279,1.801,0.785  C29.727,22.665,29.895,23.37,29.76,24.131z M34.746,22.757l-0.088,0.5c-0.053,0.294-0.353,0.552-0.643,0.552h-3.139  c0.043-0.888-0.217-1.711-0.76-2.358c-0.634-0.755-1.566-1.171-2.628-1.171c-1.11,0-2.194,0.474-3.03,1.227l1.53-8.685  c0.419-0.186,0.829-0.285,1.22-0.285h3.993c0.831,0,1.329,0.787,1.949,2.241l1.089,4.484l-0.441,2.498  c-0.027,0.156,0.016,0.318,0.119,0.44c0.102,0.122,0.254,0.192,0.413,0.192h0.124c0.104,0,0.186,0.033,0.237,0.094  C34.746,22.551,34.766,22.647,34.746,22.757z"></path></svg>