<svg height='100px' width='100px'  fill="#FFFFFF" xmlns="http://www.w3.org/2000/svg" xmlns:xlink="http://www.w3.org/1999/xlink" version="1.1" x="0px" y="0px" viewBox="0 0 512 512" style="enable-background:new 0 0 512 512;" xml:space="preserve"><g><g><path d="M473.2,256c10.8-10,16.5-25.1,13.8-40.7c-2.7-15.6-13.3-27.9-26.9-33.6c6.8-13.1,6.9-29.3-1-43h0    c-7.9-13.7-22-21.6-36.7-22.3c1.9-14.6-3.5-29.9-15.6-40h0c-12.1-10.2-28.1-12.8-42.1-8.4c-3.3-14.4-13.5-26.9-28.4-32.3    c-14.9-5.4-30.8-2.4-42.5,6.5c-8-12.4-21.9-20.6-37.7-20.6h0c-15.8,0-29.7,8.2-37.7,20.6c-11.7-8.9-27.6-11.9-42.5-6.5h0    c-14.9,5.4-25.1,17.9-28.4,32.3c-14.1-4.4-30-1.7-42.1,8.4s-17.5,25.4-15.6,40c-14.7,0.7-28.8,8.6-36.7,22.3s-7.8,29.9-1,43    c-13.6,5.7-24.1,18-26.9,33.6h0C22.3,230.9,28,246,38.8,256c-10.8,10-16.5,25.1-13.8,40.7h0c2.7,15.6,13.3,27.9,26.9,33.6    c-6.8,13.1-6.9,29.3,1,43v0c7.9,13.7,22,21.6,36.7,22.3c-1.9,14.6,3.5,29.9,15.6,40s28.1,12.8,42.1,8.4    c3.3,14.4,13.5,26.9,28.4,32.3h0c14.9,5.4,30.8,2.4,42.5-6.5c8,12.4,21.9,20.6,37.7,20.6h0c15.8,0,29.7-8.2,37.7-20.6    c11.7,8.9,27.6,11.9,42.5,6.5c14.9-5.4,25.1-17.9,28.4-32.3c14.1,4.4,30,1.7,42.1-8.4h0c12.1-10.2,17.5-25.4,15.6-40    c14.7-0.7,28.8-8.6,36.7-22.3l0,0c7.9-13.7,7.8-29.9,1-43c13.6-5.7,24.1-18,26.9-33.6C489.7,281.1,484,266,473.2,256z M256,429.6    c-95.9,0-173.6-77.7-173.6-173.6S160.1,82.4,256,82.4S429.6,160.1,429.6,256S351.9,429.6,256,429.6z"></path><polygon points="295,234.9 262.2,167.1 224,234.9   "></polygon><polygon points="309.7,234.9 369.6,234.9 345.5,168.4   "></polygon><polygon points="166.8,167.7 142.3,234.9 208.2,234.9   "></polygon><polygon points="267.4,358.7 366.6,243.9 305.4,243.9   "></polygon><polygon points="145.7,243.9 246.1,360.3 212.9,243.9   "></polygon><polygon points="254.8,161.9 173.8,161.9 216.1,230.5   "></polygon><polygon points="338.8,161.9 269.7,161.9 302.4,229.5   "></polygon><polygon points="222.3,243.9 256.4,363.5 296,243.9   "></polygon></g></g></svg>