<svg height='100px' width='100px'  fill="#FFFFFF" xmlns="http://www.w3.org/2000/svg" xmlns:xlink="http://www.w3.org/1999/xlink" version="1.1" x="0px" y="0px" viewBox="0 0 96 96" style="enable-background:new 0 0 96 96;" xml:space="preserve"><g><g><path d="M92,45.6c0-0.1-0.1-0.2-0.1-0.3c0,0,0-0.1,0-0.1c0,0,0-0.1,0-0.1c0-0.1-0.1-0.2-0.1-0.3c0,0,0,0,0,0l-12.4-18    c-0.4-0.5-1-0.9-1.6-0.9H64v-8c0-1.1-0.9-2-2-2H6c-1.1,0-2,0.9-2,2v51c0,1.1,0.9,2,2,2h8.2c0.9,5.1,5.4,9,10.8,9s9.9-3.9,10.8-9    h22.4c0.9,5.1,5.4,9,10.8,9s9.9-3.9,10.8-9H90c1.1,0,2-0.9,2-2V46c0,0,0,0,0,0C92,45.9,92,45.7,92,45.6C92,45.6,92,45.6,92,45.6z     M76.5,30l9.7,14H64V30H76.5z M8,20h52v26v16.7c-0.9,1.3-1.5,2.8-1.8,4.3H35.8c-0.9-5.1-5.4-9-10.8-9s-9.9,3.9-10.8,9H8V20z     M25,76c-3.9,0-7-3.1-7-7s3.1-7,7-7s7,3.1,7,7S28.9,76,25,76z M69,76c-3.9,0-7-3.1-7-7c0-1.6,0.6-3.1,1.6-4.4c0,0,0,0,0,0    c0,0,0,0,0,0C64.9,63,66.9,62,69,62c3.9,0,7,3.1,7,7S72.9,76,69,76z M88,67h-8.2c0,0,0-0.1,0-0.1c0-0.1-0.1-0.3-0.1-0.4    c0-0.2-0.1-0.4-0.2-0.6c0-0.1-0.1-0.3-0.1-0.4c-0.1-0.2-0.1-0.4-0.2-0.6c-0.1-0.1-0.1-0.3-0.2-0.4c-0.1-0.2-0.2-0.4-0.3-0.5    c-0.1-0.1-0.1-0.2-0.2-0.4c-0.1-0.2-0.2-0.4-0.3-0.5c-0.1-0.1-0.1-0.2-0.2-0.3c-0.1-0.2-0.3-0.4-0.4-0.5c-0.1-0.1-0.1-0.2-0.2-0.3    c-0.2-0.2-0.4-0.5-0.6-0.7c0,0,0,0,0,0c-0.2-0.2-0.5-0.5-0.7-0.7c-0.1-0.1-0.2-0.1-0.2-0.2c-0.2-0.1-0.4-0.3-0.6-0.4    c-0.1-0.1-0.2-0.1-0.3-0.2c-0.2-0.1-0.4-0.2-0.5-0.3c-0.1-0.1-0.2-0.1-0.4-0.2c-0.2-0.1-0.4-0.2-0.5-0.3c-0.1-0.1-0.3-0.1-0.4-0.2    c-0.2-0.1-0.4-0.1-0.6-0.2c-0.1,0-0.3-0.1-0.4-0.1c-0.2-0.1-0.4-0.1-0.6-0.2c-0.1,0-0.3-0.1-0.4-0.1c-0.2,0-0.5-0.1-0.7-0.1    c-0.1,0-0.2,0-0.3,0C69.7,58,69.4,58,69,58c-0.4,0-0.9,0-1.3,0.1c-0.1,0-0.3,0-0.4,0.1c-0.3,0-0.6,0.1-0.8,0.1    c-0.2,0-0.3,0.1-0.5,0.1c-0.2,0.1-0.5,0.1-0.7,0.2c-0.2,0.1-0.3,0.1-0.5,0.2c-0.2,0.1-0.5,0.2-0.7,0.3c0,0-0.1,0-0.1,0.1V48h24V67    z"></path></g></g></svg>