<svg height='100px' width='100px'  fill="#000000" xmlns:dc="http://purl.org/dc/elements/1.1/" xmlns:cc="http://creativecommons.org/ns#" xmlns:rdf="http://www.w3.org/1999/02/22-rdf-syntax-ns#" xmlns:svg="http://www.w3.org/2000/svg" xmlns="http://www.w3.org/2000/svg" xmlns:sodipodi="http://sodipodi.sourceforge.net/DTD/sodipodi-0.dtd" xmlns:inkscape="http://www.inkscape.org/namespaces/inkscape" version="1.1" x="0px" y="0px" viewBox="0 0 100 100"><g transform="translate(0,-952.36218)"><path style="text-indent:0;text-transform:none;direction:ltr;block-progression:tb;baseline-shift:baseline;color:#000000;enable-background:accumulate;" d="m 59,966.36215 c -11.54502,0 -22.066911,3.8935 -29.6875,11.2172 -7.39279,7.1047 -11.902008,17.4571 -12.125,30.12065 -2.187074,1.4708 -4.694145,3.1122 -6.84375,5.2493 C 7.947261,1015.3314 6,1018.464 6,1022.3541 c 0,2.676 1.318852,5.0562 3.28125,6.999 7.774646,6.6992 17.837194,9.1926 28.84375,8.9987 12.75045,0 25.73816,-3.2767 34.09375,-16.2476 7.74593,-1.6065 15.77474,-3.6298 20.90625,-7.124 0.5287,-0.3596 0.86578,-0.9855 0.875,-1.6248 0,-11.6257 -2.5288,-23.22945 -8.1875,-32.08915 C 80.1538,972.40665 71.14734,966.36215 59,966.36215 z m 2.0312,4.0619 c 5.85614,0.3581 10.67916,2.2864 14.625,5.3743 -4.50206,2.3878 -10.07255,5.8562 -14.78125,11.717 -5.2955,6.5913 -9.38188,16.21915 -9.8125,30.37065 -7.374573,-0.8121 -14.699165,-2.4072 -21.03125,-5.1555 -0.488031,-25.29865 18.63934,-41.78265 31,-42.30645 z m -13.49995,1.4373 c -11.148635,6.8288 -20.402404,19.2231 -21.40625,38.93195 -1.786671,-0.9881 -3.456947,-2.0924 -5,-3.312 0.255613,-11.62225 4.379543,-20.69375 10.9375,-26.99615 4.239651,-4.0744 9.52003,-6.9961 15.46875,-8.6238 z m 31.25,6.8428 c 1.33277,1.4301 2.55705,2.9971 3.65625,4.7181 4.91226,7.6909 7.33226,18.13965 7.5,28.77715 -4.36798,2.5998 -11.03058,5.2131 -19.25,6.1553 -4.92417,0.2823 -10.26264,0.2964 -15.65625,-0.094 0.35794,-13.5831 4.18723,-22.29435 8.96875,-28.24595 4.0889,-5.2428 9.62003,-8.6508 14.78125,-11.3106 z m -59.5,32.40155 c 12.741454,9.681 31.86138,11.8474 47.78125,11.3734 -7.43054,9.571 -17.74039,12.1336 -28.9375,11.8733 -9.287483,-0.216 -19.431336,-1.4437 -26.03125,-7.8427 C 10.638698,1025.0693 10,1023.7251 10,1022.3541 c 0,-2.5851 1.225504,-4.6111 3.1875,-6.5615 1.713899,-1.7038 3.943065,-3.2313 6.09375,-4.6869 z" fill="#000000" fill-opacity="1" stroke="none" marker="none" visibility="visible" display="inline" overflow="visible"></path></g></svg>