<svg height='100px' width='100px'  fill="#000000" xmlns="http://www.w3.org/2000/svg" xmlns:xlink="http://www.w3.org/1999/xlink" version="1.1" x="0px" y="0px" viewBox="0 0 96 96.001" enable-background="new 0 0 96 96.001" xml:space="preserve"><path d="M90.963,15.903c-0.537-0.421-13.412-10.169-35.439-0.091c-21.231,9.711-37.764,0.136-37.928,0.037l-1.134-0.675v2.342H5.501  v1.5h10.961v5.518H5.501v1.5h10.961v1.926v3.592H5.501v1.5h10.961v5.519H5.501v1.5h10.961v5.519H5.501v1.5h10.961v5.518H5.501v1.5  h10.961v5.519H5.501v1.5h10.961v5.519H5.501v1.5h10.961v1.45l0.364,0.219c0.09,0.054,2.231,1.324,5.984,2.509v0.001  c0.013,0.004,0.025,0.008,0.038,0.012l0.939,0.297v-0.016c3.389,0.992,7.558,1.769,12.342,1.769c5.873,0,12.659-1.167,20.018-4.533  c1.712-0.783,3.413-1.451,5.104-2.026c-2.35,1.781-3.764,4.046-3.764,6.511c0,5.717,7.573,10.367,16.883,10.367  c9.309,0,16.881-4.65,16.881-10.367V16.494h-0.749L90.963,15.903z M74.37,71.294c3.041,0,5.609,1.393,5.609,3.041  c0,1.649-2.568,3.042-5.609,3.042s-5.609-1.393-5.609-3.042C68.761,72.687,71.329,71.294,74.37,71.294z"></path></svg>