<svg height='100px' width='100px'  fill="#000000" xmlns="http://www.w3.org/2000/svg" xmlns:xlink="http://www.w3.org/1999/xlink" version="1.1" x="0px" y="0px" viewBox="0 0 64 64" style="enable-background:new 0 0 64 64;" xml:space="preserve"><style type="text/css">
	.st0{fill-rule:evenodd;clip-rule:evenodd;}
</style><path class="st0" d="M14.5,51.5c0.1,0.1,0.7,0.1,0.5,1.5c-0.1,1.2,0,0.3-0.3,0.7c-0.1,0-0.8,0.1-0.5-1.6  C14.4,51.3,14.3,51.8,14.5,51.5L14.5,51.5z M13.2,47.7c0.1,4-0.3,7.9,0.2,11.8c2.2,0.7,7.3,0.7,10,0.8c0.7-2.6,1-5.5,1.7-8.2  c0.7-2.5,1.6-5.2,2.3-7.7c0.3-1.3,0.5-2.6,0.9-4c0.4-1.2,0.8-2.5,1.2-3.7l1.9-8.2c1-5,1-3-0.8-7.2c-0.5-1.2-0.9-2.2-1.5-3.4  c-1.5-3,0.1-7.3-0.2-8.6C28.5,8.1,15.7,9,14.6,9.1l0,3.3c0,7.9-0.7,15.7-0.8,23.6C13.8,39.6,13.1,43.9,13.2,47.7L13.2,47.7z   M14.5,55.7c0.7-0.7,0.6,1.9,0.6,2.3c-0.6-0.1-0.7-0.2-0.7-0.8C14.3,56.7,14.3,56,14.5,55.7L14.5,55.7z M15.6,30.9  c0.4,0.7,0.3,2.1-0.4,2.5c-0.2-0.6-0.2-0.5-0.1-1.4C15.2,31.1,14.9,31.2,15.6,30.9L15.6,30.9z M15.7,37.9c-0.1,1.5-0.4,1.2-0.5,1.3  c-0.5-0.5-0.3-0.1-0.3-1c0-0.4,0-2.6,0.7-2.2C15.9,36.2,15.7,37.3,15.7,37.9L15.7,37.9z M15.4,41.5c0.1,0.3,0.3,3-0.3,2.7  c-0.1,0-0.3-0.3-0.3-0.6C14.5,42.6,14.5,41.7,15.4,41.5L15.4,41.5z M15,46.9l0.2,1.2c0,0.6,0,0.7-0.3,1.1c-0.6,0.1-0.7-0.3-0.6-1.1  C14.4,47.2,14.4,47,15,46.9L15,46.9z M16.3,11.1c-0.3,1.2,0.2,1.6-0.7,2.1c-0.4-1-0.2-1.4,0.2-2.5L16.3,11.1z M16.3,16.4  c0.1,0.8,0,1.6-0.5,2c-0.3-0.5-0.3-0.8-0.3-1.4c0,0,0.1-0.9,0.1-0.9c0.3-0.7,0-0.2,0.5-0.5C16.3,16.2,16.2,15.3,16.3,16.4L16.3,16.4  z M16.4,22.2c0,0.9,0.2,1-0.5,1.4c-0.3-0.6-0.4-2-0.1-2.5C16.6,20.8,16.3,21.2,16.4,22.2L16.4,22.2z M15.8,26  c0.3,0.7,0.3,2.1-0.1,2.6c-0.6-0.3-0.6-0.5-0.6-1.4C15.2,26.2,15.1,26.2,15.8,26L15.8,26z"></path><path class="st0" d="M33.4,23.6c-0.3,2.4,0.3,3.6,0.8,6.1c0.4,2,1,4.1,1.4,6c0.4,2.1,0.3,4.4,0.8,6.4c0.5,2.1,0.9,3.8,1.2,6.1  c0.7,4.3,1.6,8,2.5,12.1c1.9,0.2,3.6,0.1,5.5,0.3c0.9,0.1,4.5,0.4,5.3,0.3c0.2-1.2-0.3-4.5-0.4-6.1c-0.1-4-0.1-9-0.5-13  c-0.2-2.4,0-4.3-0.1-6.6c-0.3-7.9-0.5-11.2-1.3-18.7l-0.2-4.9c0-0.5-0.1-1-0.5-1.2c-2.4-1-11.3-1.6-14.4-1.3  c-0.2,2.4-0.2,4.9-0.2,7.3C33.3,18.5,33.6,21.7,33.4,23.6L33.4,23.6z M49.7,59.6c-0.6,0-0.8-0.3-0.7-0.9c0-0.5,0-0.2,0.2-0.5  C49.8,58.6,49.9,58.8,49.7,59.6L49.7,59.6z M48.5,52.5c-0.1-0.7-0.3-1.1,0-1.6c0.4,0.2,0.5-0.2,0.7,1.1c0.1,0.7,0.2,0.9,0,1.5  C48.5,53.4,48.7,53.6,48.5,52.5L48.5,52.5z M48.9,55c0.7-0.3,0.8,1.3,0.5,1.9c-0.5-0.2-0.5,0-0.6-0.6C48.6,55.8,48.5,55.2,48.9,55  L48.9,55z M46.7,16.6c-0.1-1-0.2-1,0.3-1.4c0.7,0.6,0.5,1.9,0,2.6C46.7,17.4,46.8,17.2,46.7,16.6L46.7,16.6z M47.5,22.4  c-0.5-0.6-0.7-2.2-0.2-2.7c0.6,0.4,0.3,0.4,0.4,1.4C47.8,22,48,21.7,47.5,22.4L47.5,22.4z M48.4,47.9c-0.1-1-0.2-1.3,0.6-1.4  c0.2,0.8,0.3,1.7,0,2.3C48.5,48.8,48.4,48.7,48.4,47.9L48.4,47.9z M48.1,42.6c0.8,0.1,1,0.9,0.8,1.6c-0.3,0.9,0,0.3-0.7,0.5  C48,44.2,47.8,43.2,48.1,42.6L48.1,42.6z M48.5,40.5c-0.8-0.4-0.8-1.7-0.4-2.5c0.3,0.2,0.5-0.2,0.6,1.2  C48.7,39.8,48.6,40.2,48.5,40.5L48.5,40.5z M48.1,26.6c-0.6-0.2-0.5,0-0.7-0.8c0,0-0.1-0.9-0.1-0.9c0.1-0.8,0.1-0.4,0.3-0.7  c0.6,0.3,0.4,0,0.5,1C48.3,26,48.3,26,48.1,26.6L48.1,26.6z M47.6,34.1c0.3-0.7-0.1-0.2,0.5-0.5c0.2,0.3,0.2,0,0.2,0.5  c0,0.1,0,0.7,0,0.8c0,0.9,0.1,0.6-0.1,1.4c-0.5-0.2-0.7,0.3-0.7-1.4C47.6,34.8,47.6,34.1,47.6,34.1L47.6,34.1z M48.2,31.8  c-0.8-0.3-0.7-0.3-0.8-1.4c0-0.5-0.2-1.2,0.2-1.3C48.5,28.7,48.3,31.3,48.2,31.8L48.2,31.8z M46.8,13.4c-0.6-0.5-0.5-2.1-0.5-2.1  c0.3-0.9-0.2-0.2,0.7-0.5C47.1,11.5,47.2,12.8,46.8,13.4L46.8,13.4z"></path><path class="st0" d="M32.4,22.7c0.6-2.8,0-10.1,0-13.5c-2.8-0.5-3.1-1.9-3.2,6.3c0,1.2,1.3,4,2,5.6C31.8,22.6,31.8,22.3,32.4,22.7  L32.4,22.7z"></path><path class="st0" d="M18.6,7.6c0.3-0.9,0.3-3.3,0.1-4.3l-3.2,0c-1,0.1-0.4-0.2-0.7,0.3c-0.1,0.2-0.2,3.9-0.2,4.5  c0.9-0.1,1.1-0.2,2-0.2C17.4,7.8,18,7.9,18.6,7.6L18.6,7.6z"></path><path class="st0" d="M19.6,3.2c-0.3,1.2-0.4,1.2,0,2.3c-0.2,0.8-0.2,1.6,0.1,2.4c1,0.3,2.4,0.2,3.4-0.2c0.4-1.3,0.1-0.2-0.1-0.6  l-0.1-2.8c0.2-0.4,0.4-0.5,0-0.8c-0.2-0.4-0.1-0.4-1.6-0.5C20.3,3,20.2,2.9,19.6,3.2L19.6,3.2z"></path><path class="st0" d="M23.7,3.4c-0.1,1.5-0.1,3,0.2,4.3c0.9,0.1,4.7,0.3,5.6,0.1l0.9-0.4c-1.8-1.1-1.3-1.9-0.9-3.8L23.7,3.4z"></path><path class="st0" d="M30.4,4.1c-2.4,2.9,4.1,5.2,3.3,0.7c-1.4-1.4-1.7,0-2.9-0.5L30.4,4.1z M31.7,6.6c-0.8-1-0.5-2.3,0.6-2  C33.4,4.8,32.7,6.4,31.7,6.6L31.7,6.6z"></path><path class="st0" d="M34.4,4c0,2.6,0.6,1.9-0.7,4.1c1.3,0.1,4.1,0.5,5.1-0.2l0.2-4.1L34.4,4z"></path><path class="st0" d="M39.7,3.6c-0.4,0.8-0.3,3.5,0.1,4.4l2.3,0.3c0,0,0.4,0.3,0.7,0.3c1.5,0.2,0.7-0.1,0.9-0.3c0.3-0.9,0.2-3.5,0-4  c-0.3-0.3,0.8-0.2-1.8-0.6C41.4,3.6,40.1,3.3,39.7,3.6L39.7,3.6z"></path><path class="st0" d="M44.4,5.4c-0.1,0.8,0,2.5,0.1,3.3C45.5,9,47,9.3,48,9.2c0-1.2-0.1-1.8-0.2-2.9c-0.2-1.5,0.3-1.9-1.2-2  C45.3,4.2,44.6,4.2,44.4,5.4L44.4,5.4z"></path></svg>