<svg height='100px' width='100px'  fill="#000000" xmlns="http://www.w3.org/2000/svg" xmlns:xlink="http://www.w3.org/1999/xlink" version="1.1" x="0px" y="0px" viewBox="0 0 69 69" style="enable-background:new 0 0 69 69;" xml:space="preserve"><g><path d="M43.43042,24.62503l-0.5863-1.86005l-16.64588-0.0423l-0.87781,1.80231   c-5.35004,6.73999-11.85998,23.53003-13.42999,27.70001c14.82001,13.10999,29.64996,13.08002,45.26996-0.09003   C53.65046,40.23502,46.24042,28.72501,43.43042,24.62503z M30.7804,27.94498c-0.04999,0.13-5.01996,13.48004-5.59998,26.53003   c-0.02997,0.53998-0.46997,0.96002-1,0.96002h-0.04999c-0.54999-0.03003-0.97998-0.5-0.95001-1.05005   c0.59003-13.37,5.67999-27.00995,5.72998-27.13995c0.19-0.52002,0.77002-0.78003,1.29004-0.59003   C30.71045,26.85501,30.98041,27.42502,30.7804,27.94498z M36.15046,56.75504c0,0.56-0.45001,1-1,1c-0.55005,0-1-0.44-1-1V27.79501   c0-0.56,0.44995-1,1-1c0.54999,0,1,0.44,1,1V56.75504z M46.17041,54.58499h-0.04999c-0.53003,0-0.96997-0.40997-1-0.95001   c-0.57001-13.01996-6.52002-25.47998-6.58002-25.60999c-0.23999-0.48999-0.02997-1.08997,0.46002-1.33002   c0.5-0.23999,1.09998-0.02997,1.33997,0.46002c0.25,0.53003,6.19,12.97003,6.78003,26.39001   C47.15046,54.095,46.7204,54.56503,46.17041,54.58499z"></path><path d="M44.06043,12.17502h3.14001c0.54999,0,1-0.45001,1-1V3.16501c0-0.54999-0.45001-1-1-1h-7.46002   c-0.33997,0-0.65997,0.16998-0.83997,0.46002c-1.25,1.96997-2.92004,3.06995-4.55005,3   c-1.52997-0.06-2.90998-1.10004-3.88001-2.93005c-0.16998-0.32996-0.50995-0.52997-0.88-0.52997h-7.60999c-0.54999,0-1,0.45001-1,1   v8.08002c0,0.54999,0.45001,1,1,1h2.62l1.2417,8.47638l17.26959,0.04388L44.06043,12.17502z"></path><path d="M11.05988,54.1611l-0.76947,1.59393c-0.19,0.38995-0.09998,0.85999,0.21002,1.15997c7,6.62,15.31,9.91998,23.72998,9.91998   c8.40002,0,16.89001-3.29999,24.25-9.90997c0.33002-0.29004,0.42004-0.77002,0.23004-1.16998l-0.79071-1.64368   c-7.97937,6.57813-15.91229,9.86987-23.74695,9.86987C26.35584,63.98123,18.63696,60.70834,11.05988,54.1611z"></path></g></svg>