<svg height='100px' width='100px'  fill="#000000" xmlns="http://www.w3.org/2000/svg" class="icon" viewBox="0 0 1024 1024" version="1.1" x="0px" y="0px"><path fill="#000000" d="M356.42 920.69a9.71 9.71 0 0 1-3-0.49l-158.71-52.38a9.71 9.71 0 0 1-6.71-9.22v-10.78a9.69 9.69 0 0 1 0.18-1.85l121.69-628.29c1-6.51 8.64-53.77 29-74.71L352 109.49a9.71 9.71 0 0 1 13.39-5.14c44.73 22.4 124.1 56.65 146.61 53.39 32.88-4.86 159.15-43.43 160.42-43.82a9.72 9.72 0 0 1 10.45 3.25l19.65 24.77c4 4.1 21.16 24.22 28.57 77.57 7.46 53.69 94.27 599.81 98.41 625.85l5.84 16.07a9.71 9.71 0 0 1-4.86 12c-3.14 1.54-77.8 37.79-152.49 47.13a9.73 9.73 0 0 1-1.2 0.07H664.5a9.71 9.71 0 0 1-9.23-6.71L527.41 521.17a9.74 9.74 0 0 1-0.29-1.1l-4.37-21.86C471.89 618.74 373 860 370.73 898.64a9.68 9.68 0 0 1-0.55 2.71l-4.62 12.9a9.71 9.71 0 0 1-9.14 6.44z m315.14-19.42h4.66c57.68-7.33 116.92-32.15 137.86-41.56l-3.08-8.58a9.74 9.74 0 0 1-0.46-1.79c-0.91-5.72-91-572.23-98.62-627.15-6.78-48.78-22.16-65.56-23.19-66.63a6.68 6.68 0 0 1-1-1.07l-15.92-20.07c-26.55 8-126.61 38-156.92 42.53-31.25 4.63-118.2-35.78-148.64-50.55l-10 25.59a9.72 9.72 0 0 1-2.46 3.6c-14.36 13.25-22.7 51.52-24.71 65.14 0 0.14 0 0.29-0.07 0.43L207.46 848.75v2.83l143 47.21 1-2.77c5.76-58.94 159.13-418.95 165.71-434.38a9.71 9.71 0 0 1 18.45 1.91l10.43 52.16z"></path><path fill="#000000" d="M314.5 267.41a9.71 9.71 0 0 1-7.65-15.68l60.39-77.45a9.71 9.71 0 0 1 15.32 11.94l-60.39 77.45a9.69 9.69 0 0 1-7.67 3.74zM729.54 296.62a9.71 9.71 0 0 1-8.41-4.84l-61.94-106.66a9.71 9.71 0 1 1 16.81-9.75L737.93 282a9.71 9.71 0 0 1-8.39 14.62z"></path><path fill="#000000" d="M516.15 221.64c-1 0-2 0-3-0.05C458 219.71 339.55 171 334.54 169a9.71 9.71 0 0 1 7.41-18c1.2 0.49 120.2 49.39 171.83 51.16 51.45 1.75 184.79-50.68 186.13-51.21A9.71 9.71 0 1 1 707 169c-5.48 2.22-133.8 52.64-190.85 52.64z"></path></svg>