<svg height='100px' width='100px'  fill="#000000" xmlns="http://www.w3.org/2000/svg" xmlns:xlink="http://www.w3.org/1999/xlink" version="1.1" x="0px" y="0px" viewBox="0 0 100 100" style="enable-background:new 0 0 100 100;" xml:space="preserve"><path d="M81,70.9c-0.3-8.7-12.4-15.3-21-15.8l-2.2-6.6c11.5-2.3,16-9.4,17.2-11.9c0.2-0.4,0.1-1-0.1-1.4c-1.4-2.3-5.2-8.9-5.7-11.3  C66.5,11.9,59.5,5,50.2,5c-9.3,0-16.3,6.9-19.1,18.8c-0.6,2.4-4.3,9-5.7,11.3c-0.3,0.4-0.3,1-0.1,1.4c1.2,2.4,5.7,9.6,17.2,11.9  L40.2,55c-8.6,0.5-20.9,7.1-21.1,15.9c0,0-0.5,4.6-0.6,5.1c-0.9,6.3-2.3,16.4-2.3,16.5c0,0.8,0.7,1.5,1.5,1.5c0.8,0,1.5-0.7,1.5-1.5  c0,0,1.2-8.8,2.1-15.2c1,0.3,2,0.8,2.8,1c1.1,0.3,2.2,0.5,3.3,0.8c-1,4.6-0.8,9.6-1.1,14.3c-0.1,1.9,2.8,1.9,2.9,0  c0.1-1,0.1-2,0.3-3c0.4,1.2,0.8,2.3,1.2,3.4c0.2,0.6,0.7,0.9,1.2,1v0.1c0,0,35.1,0.3,35.8,0c0.7-0.3,0.9-0.7,1.1-1.3  c0.6-1.5,1.2-3.2,1.8-4.7c0.4,1.6,0.7,3.3,1.1,4.9c0.4,1.8,3.3,1,2.9-0.8c-0.9-4.1-1.9-8.1-2.7-12.2c0-0.5-0.1-1-0.1-1.5  c0,0-0.1-0.1-0.1-0.3c1.2-0.4,2.4-0.5,3.7-0.7c1.2-0.2,2.4-0.5,3.5-1c0.8,6.4,2,15.2,2,15.2c0,0.8,0.7,1.5,1.5,1.5  c0.8,0,1.5-0.7,1.5-1.5C83.8,91,81,72.3,81,70.9z M63.5,58.5c2.3,0.6,4.7,1.5,6.9,2.8c-6.3,4-13.3,6.3-20.3,8.3  c-3.3,0.9-6.6,1.8-9.9,2.6c-2.8,0.7-5.6,1-8.3,1.9c0.8-2.1,2.1-4,3.9-5.1c3-1.9,7-2.9,10.5-3.7C52.2,63.9,57.8,61.1,63.5,58.5z   M28.2,35.8c1.3-2.3,5-8.6,5.7-11.5C35,19.4,38.9,7.7,50,7.7c11.1,0,15,11.6,16.2,16.6c0.7,2.9,4.3,9.2,5.7,11.5  C70.1,38.9,64.4,46.1,50,46C35.7,46,30,39,28.2,35.8z M41.3,57.8c0.7,0,1.2-0.4,1.4-1l2.7-8.1c1.5,0.2,3,0.3,4.7,0.3  c1.6,0,3.2-0.1,4.7-0.3l2.7,8.1c0.1,0.4,0.4,0.7,0.7,0.9c-2.7,1.3-5.3,2.4-7.9,3.5c-3.4,1.3-7,1.6-10.4,2.8  c-0.7-1.9-1.4-3.9-2.4-5.7C38.8,58,40.1,57.8,41.3,57.8z M27.9,76.2c-1.3-0.3-2.5-0.6-3.8-1c-0.8-0.3-1.7-0.7-2.6-1  c0.3-2.1,0.4-3.5,0.4-3.5c0.2-5.2,6.5-9.7,12.7-11.8c1.1,1.8,1.8,3.9,2.6,5.9c-2.1,0.9-4.2,2-5.7,3.8C29.8,70.9,28.5,73.5,27.9,76.2  z"></path></svg>