<svg height='100px' width='100px'  fill="#000000" xmlns="http://www.w3.org/2000/svg" data-name="Layer 1" viewBox="0 0 200 200" x="0px" y="0px"><title>Scarf</title><path d="M156.42,164.83l-3.11-19.72a2,2,0,0,0,0-.52L139,43.25a2,2,0,0,0-1.65-1.69l-54-9A2,2,0,0,0,81,34.84l.37,2.34H80a2,2,0,0,0-2,1.89l-.17,3-36,56.84a2,2,0,0,0,.59,2.74L73.34,122l-1.09,19.33h0l-.87,15.41a2,2,0,0,0,1.88,2.11h.11a2,2,0,0,0,2-1.89l.74-13.18,3.4.55-.77,13.76a2,2,0,0,0,1.88,2.11h.11a2,2,0,0,0,2-1.89L83.49,145l3.38.55-.77,13.63A2,2,0,0,0,88,161.25h.11a2,2,0,0,0,2-1.89l.74-13.21,3.38.55-.76,13.49a2,2,0,0,0,1.88,2.11h.11a2,2,0,0,0,2-1.89l.74-13.08.59.1.91,5.74,3.11,19.73a2,2,0,0,0,2,1.69l.31,0a2,2,0,0,0,1.66-2.29L104,154.52l3.12-.5,2.82,17.89a2,2,0,0,0,2,1.69l.31,0a2,2,0,0,0,1.66-2.29L111,153.39l3.12-.5,2.85,18a2,2,0,0,0,2,1.69l.31,0a2,2,0,0,0,1.66-2.29l-2.85-18,3.12-.5,2.87,18.18a2,2,0,0,0,2,1.69l.31,0A2,2,0,0,0,128,169.3l-2.87-18.19,3.12-.5,2.89,18.32a2,2,0,0,0,2,1.69l.31,0a2,2,0,0,0,1.66-2.29L132.24,150l3.2-.52,2.84,18a2,2,0,0,0,2,1.69l.31,0a2,2,0,0,0,1.66-2.29l-2.84-18,3.12-.5,2.86,18.14a2,2,0,0,0,2,1.69l.31,0a2,2,0,0,0,1.66-2.29l-2.86-18.15,3.12-.5,2.88,18.28a2,2,0,0,0,2,1.69l.31,0A2,2,0,0,0,156.42,164.83Zm-13.7-66.6-46.37,8.09L94.53,94.77l46.55-8.12Zm-2.2-15.55L93.9,90.82,93.3,87,140,78.82Zm-2.76-19.54,1.66,11.71L92.67,83,90.83,71.34Zm-.56-4-47,8.2-.61-3.86,47-8.21Zm-2-13.92.86,6.09L89,59.58,87.11,47.72l30.65-5.35v0ZM94.3,38.44l11.62,1.94L86.48,43.77l-.61-3.86ZM81.89,41.19H82L85.63,64l-5-.86Zm-1.46,26,5.86,1,.63,4L80.21,71ZM80,75l7.59,1.32,2.59,16.41L79.1,90.86ZM78.87,94.88,90.82,97l.65,4.13L78.65,98.85Zm-.45,8,13.71,2.38,1.92,12.19-16.29-2.83Zm16.29,18.75.63,4-18-3.13.22-3.88ZM77.37,50.29l-.87,15.5-6.32-4.15Zm-3.77,67.1-27.36-18L51,91.9l23.18,15.23Zm.84-14.87-21.29-14,2-3.21,19.5,12.81Zm.51-9L57.32,81.93l6.56-10.35,11.86,7.79ZM76,74.76,66,68.2,68,65l8.2,5.39Zm21.27,68.39-1.27-.2-19.65-3.17.74-13.23L96,129.82l2.12,13.46Zm.31-29L97,110.28l46.31-8.08.55,3.87Zm.62,4L144.39,110,146,121.72l-46,8Zm2.46,15.61,45.93-8,.55,3.87-45.87,8Zm2.66,16.88-1.43-9.07,45.81-8,1.37,9.69Z"></path></svg>