<svg height='100px' width='100px'  fill="#000000" xmlns="http://www.w3.org/2000/svg" xmlns:xlink="http://www.w3.org/1999/xlink" version="1.1" x="0px" y="0px" viewBox="0 0 132 132" enable-background="new 0 0 132 132" xml:space="preserve"><g><path d="M4,125.9C3.9,125.9,3.9,125.9,4,125.9c-0.5,0-0.8,0.4-0.7,0.8s0.4,0.7,0.8,0.7c9.7-0.1-8.3-0.4,20.8,0.1   c-10.8-1-13.8-1.3-17.6-1.5C5.3,125.9,4,125.9,4,125.9L4,125.9z"></path><path d="M37.1,6.5c0.1,0,1.6-0.7,1.5-0.6c0.9-0.4,0.3-1.8-0.6-1.4c-17.7,8.3-19.8,13.2-23.3,27.9c0,0,0.2-0.6,0.4-1.6   C18.6,18.7,21.3,13.1,37.1,6.5z"></path><path d="M39.9,128c8.6,1.7,19.2,2,28.1,2c5.1,0,10-0.6,13.6-4.2c4.1,1,20.8-5.9,24.9-10.5c1.7-1.9,3.2-4.1,4.4-6.4   c11.1-8,17.9-21.7,17.8-36.2c0-13.6-5.8-27.5-16.2-39.3c-6.5-7.3-15.2-13-24.1-8.9h0c-2.1-0.7-4.9-1.5-8.6-2.6   c1.2-4.8,1.2-9.9,1.2-10c0.1-4.7-1.7-7.8-5.4-9.1c-8.8-3.3-12.5,3.8-14.6,13c-0.1,0.5-0.2,1-0.3,1.4c-19.9-4-25,0.1-31.7,14.7   c-3,6.6-6.7,14.6-6.4,22.9c0,0,0,0,0,0C16.1,64.2,5,81.8,4.8,93.2C4.5,107.3,15.5,123.1,39.9,128z M105.4,114.3   c-2.9,3.2-15.9,9.6-22.5,10c14.1-18.7-0.7-70.4,5.1-85.9c3.2-0.2,6.3-1.2,9-2.8c0.3-0.1,0.7-0.2,1-0.3c0,0,0.2,0.1,0.2,0.2   c4.1,20.3,17.7,39.4,15.3,60.1C112.7,102.4,110.1,109.2,105.4,114.3z M84.1,36.7c0,0,0-0.1,0-0.2c0,0,0,0,0,0c2.4-4,5.8-7,10.1-8.2   c1,0,2.5,0.5,3.5,1c0.7,0.3,1.3,1.6,1.3,2.6C98.8,33.2,91.8,37.9,84.1,36.7z M100.1,37.3c7.5,7.5,12.7,17,15,27.1   c1.1,5.1,0.9,13.5-0.1,21.7C113.4,68.9,104,53.8,100.1,37.3z M101,26.2c4.5,1.9,7.9,5.4,10.4,8.3c10.2,11.5,15.8,25,15.8,38.3   c0,13-5.6,25.3-14.9,33.2c3.4-8.2,6.5-31.6,4.2-41.8c-2.5-11.1-8.5-21.5-17-29.5c0-0.2,0.2-0.5-0.1-0.8c2.2-2.1,0.4-5.2-1.1-5.9   c-1-0.5-2.5-1-3.8-1c-0.5-0.3-1.6-0.8-3.9-1.6C93,24.4,96.8,24.3,101,26.2z M71.7,3.5c1.1,0,2.2,0.2,3.5,0.7   c6.1,2.3,4.6,10.3,3.3,17.3c-1.1-0.3-2.4-0.7-3.8-1.1c-0.9-2.8,1.6-7.5-0.2-11.4c-1-2.1-3.1-2.7-4.7-0.6c-2.3,2.8-3.2,6.5-3.5,9   c0,0.2-0.1,0.6-0.5,0.8c-1.2-0.3-2.4-0.5-3.6-0.8C63.6,11.8,65.2,3.5,71.7,3.5z M73.1,20.1c-1.8-0.5-3.7-0.9-5.6-1.4   c0.7-1.2,0.3-5.3,3.5-9.2c0.9-1,1.6-1,2.2,0.3c0.9,1.8,0.5,4.1,0.2,5.9C73.1,16.9,72.8,18.8,73.1,20.1z M24,52.6   c0.4-7.2,3.6-14.3,6.3-20.1c4.3-9.4,8.1-15.3,18.1-15.3c12.2,0,33.1,7,43.7,10.2c-13.8,5.5-13.1,23.7-18.4,34.5   c-4.6,9.4-14.9,14.6-23.2,14.6c-10.9,0-25.2-9-26.4-20.1c0-0.4-0.1-0.8-0.1-1.2C24,54.3,24,53.4,24,52.6z M22.7,57.1   C24.3,68.6,39,77.9,50.5,77.9c8.9,0,19.7-5.5,24.6-15.4c3.8-7.7,4.3-16.6,8-24.1c1.1,0.3,2,0.3,3,0.2c-3.9,26.4,8.1,64.7-3.4,83.3   c-3.7,6.2-9.1,6.6-16.3,6.5c-17.7-0.3-38.8-1-51.9-15.2c5.1,3.8,14.5,6.2,19.4,2.3c2.3-1.8,3-4.8,3.6-7.8l3.2-17.3   c0.7-3.8,1.2-7.8-0.8-10.9c-1.8-2.8-5-4.1-8-5.6c-5.6-3.1-14.4-7.1-14.8-7.2c0,0,0,0,0,0l-0.3-0.2C18.7,63.4,20.7,60.2,22.7,57.1z    M13.1,78.6c0.3-2.9,1.4-7,2.9-10.4c0.2,0,0.4,0,0.6,0l14.5,7c0.3,0.1,5.4,3,6.5,4.5c-8.2,8.9-10.9,13.8-16.7,12.6   C16.4,91.5,12.3,86.6,13.1,78.6z M15.9,91.5c1.9,1.7,4.3,2.6,6.6,2.6c4.3,0,7.2-3.2,9.5-5.7l6.9-7.7c1.5,2.7,1,6,0.4,9.5   c-3.7,19.2-3.5,22-6.3,24.3c-2.3,1.9-4.8,1.9-7.9,1.5c-14.1-1.7-17.7-15.2-18.3-17.4c0-0.1-0.1-0.2-0.1-0.3c0-0.1-0.2-0.9-0.2-1.5   C5.7,88.9,8.2,83.2,12,76C10.9,81.7,11.5,87.6,15.9,91.5z"></path><path d="M23.7,87.5c-0.8,0.4-1.7,0.7-2.5,0.8C22.1,88.6,23.1,88.2,23.7,87.5z"></path><path d="M21.2,88.3c-0.5-0.1-0.9-0.5-1.3-1c-1.2-1.8,0.2-3.7,1.8-3.8c0.1,0,1-0.1,1.9,0.8c1.1,1.1,0.8,2.4,0.1,3.2   c1.7-0.9,2.8-2.3,1-4.3c-3.4-3.5-8.8,0.9-6.1,4.9C18.9,88.5,20,88.6,21.2,88.3z"></path><path d="M41.5,116.9c4.8,7.9,29.4,9.4,34.4,1.8c1.6-2.4,1.4-3.4,4.1-28.8c0.1-1,0.2-2.1-0.1-3.2c0,0,0,0,0,0c0,0,0,0,0-0.1   c-0.2-0.7-0.7-1.3-0.9-1.4c-0.8-0.9-2-1.5-3.3-1.8c0,0,0,0,0,0c-4.5-1.5-11.3-1.8-15.8-2.1c-1.3-0.2-2.8-0.3-4.2-0.3   c-0.8,0-1.5,0-2.1,0.1c-1.4-0.2-4,0.7-5.8,3c-0.1,0.1-0.2,0.3-0.3,0.4c-0.1,0.1-0.1,0.2-0.2,0.3c-1,1.5-1.6,3.3-2.1,5   c-1.7,5.7-3.2,11.5-4.3,17.3C40.2,110.2,39.7,113.9,41.5,116.9z M48.5,85.4c0,0,0.1-0.1,0.1-0.1c0.3-0.5,0.7-0.9,1.1-1.2   c2.1-1.8,4.2-1.6,6.1-1.5c4.2,0.1,21,0.4,22.6,4.3c-0.7,6.1-4.7,12.2-9.6,14.6c-5.2,2.6-12,1.7-16.1-2.1   C50.2,97.1,44.9,91.2,48.5,85.4z M42.3,107.2c1-5.2,2.3-10.4,3.8-15.5c0.6,2.9,2.5,5.9,5.6,8.7c7.2,6.6,20.7,5.6,26.5-7.3   c-2.4,22.3-2.2,22.8-3.5,24.7c-4.3,6.5-27.6,5.3-31.9-1.7C41.3,113.5,41.7,110.2,42.3,107.2z"></path><path d="M59.5,100.4c3.7,2.2,8.4-1.9,6.6-5.2c-0.8-1.4-2.4-2-4-2C60.4,93.1,56,98.3,59.5,100.4z M62.1,94.6c1,0,2.2,0.4,2.7,1.3   c1.1,1.9-2.1,4.7-4.5,3.2C59.3,98.5,58.8,94.6,62.1,94.6z"></path><path d="M43,47.7c3.4,0,6.5-2.3,9.1-4.6c1.3,1.3,2.9,1.9,4.3,1.9c0.3,0.9,1.2,12.3,8.2,12.7c0.1,0,3.3,0.2,4.6-2.7   c0.6-1.5,0.3-3.2,0-4.8c-0.7-3.4,0.2-4,2.5-5.2c7.8-4-2.8-14-11.1-7.6c-1.4-2.3-4-3-6.3-2.3c0,0,0,0,0-0.1   c-1.3-3.3-5.7-7.4-8.9-7.5c-0.1,0-2.1-0.1-3.1,1.6c-2,3.3,3.1,6.6-1.2,8.5c-1,0.4-1.8,0.7-2.5,1.3c-1.5,1.3-1.9,3.6-1,5.5   C38.3,46.3,40.4,47.7,43,47.7z M61.2,39c0-0.1,0.1-0.2,0.1-0.3c5.9-4.8,12.7,0.5,11.6,3.3c-0.3,0.7-1.1,1.2-1.9,1.6   c-3.7,1.9-3.8,3.1-3.2,7c0.3,1.3,0.5,2.6,0.1,3.7c-0.5,1-1.7,1.8-3,1.8c-0.1,0-2,0.1-3.7-1.9c-1.5-1.7-2-4.3-2.2-4.7   c-0.2-0.6-1.2-4-1.1-4.8C60.2,44,61.8,41.5,61.2,39z M54.1,36.7c1.2-0.6,6,1,5.7,3.8c-0.3,2.7-3.2,4-5.9,2.1   c-3-2.2-1.5-4.4-1.5-4.5C52.8,37.5,53.5,36.9,54.1,36.7z M39.4,40.1c1.4-1.2,5.9-1.4,4.5-6.2c-0.3-1-2.2-4.8,1.2-4.8h0   c2.5,0.1,6.3,3.7,7.5,6.4c0,0.1,0,0.3,0,0.4c-2.2,1.4-2.8,3.8-1.5,6.1C41,51.2,36.2,42.7,39.4,40.1z"></path></g></svg>