<svg height='100px' width='100px'  fill="#000000" xmlns="http://www.w3.org/2000/svg" xmlns:xlink="http://www.w3.org/1999/xlink" version="1.1" x="0px" y="0px" viewBox="41.883 50.763 468.233 410.474" style="enable-background:new 41.883 50.763 468.233 410.474;" xml:space="preserve"><g><rect x="98.076" y="50.763" width="83.005" height="46.568"></rect><rect x="373.808" y="50.763" width="82.991" height="46.568"></rect><path d="M364.916,50.763H189.973v46.568h88.124h86.819V50.763z M277.452,90.883c-9.283,0-16.834-7.557-16.834-16.845   c0-9.279,7.551-16.828,16.834-16.828c9.276,0,16.823,7.549,16.823,16.828C294.275,83.327,286.728,90.883,277.452,90.883z"></path><path d="M497.514,424.509v-0.001c10.053-69.348,2.39-142.325-10.394-204.859c-2.015,23.548-21.813,42.098-45.873,42.098   c-25.393,0-46.051-20.66-46.051-46.055v-77.271c0-2.455,1.99-4.446,4.445-4.446h65.593c-3.073-10.058-6.09-19.356-8.935-27.751   H369.36h-86.867l-2.385,214.992l55.381,103.293H497.514z"></path><path d="M95.019,106.222c-28.276,83.417-57.684,204.977-41.204,318.39h89.068l72.924-0.102l55.411-103.336l2.385-214.952h-88.076   H95.019z"></path><polygon points="502.695,433.398 502.691,433.399 333.526,433.399 332.823,433.398 325.386,433.398 325.386,461.128    510.116,461.128 510.116,433.398  "></polygon><path d="M48.995,433.503c0.327,0.076,0.663,0.13,1.011,0.13C49.657,433.633,49.322,433.579,48.995,433.503h-7.112v27.734h184.71   v-27.734h-83.224H48.995z"></path><path d="M277.452,66.101c-4.38,0-7.943,3.56-7.943,7.937c0,4.386,3.563,7.954,7.943,7.954c4.374,0,7.933-3.568,7.933-7.954   C285.385,69.662,281.826,66.101,277.452,66.101z"></path><path d="M404.087,215.691c0,20.492,16.67,37.164,37.16,37.164c20.492,0,37.164-16.672,37.164-37.164v-34.313v-0.352   c-3.146-12.511-6.665-25.33-10.476-38.161h-0.029h-63.819V215.691z"></path></g></svg>