<svg height='100px' width='100px'  fill="#000000" xmlns="http://www.w3.org/2000/svg" viewBox="0 0 64 64" x="0px" y="0px"><g><path d="M15,36.748S7.323,50.868,7.05,51.58a7.2,7.2,0,0,0,.264,6.132A8.1,8.1,0,0,0,11.5,61.33a9.48,9.48,0,0,0,3.509.67,9.882,9.882,0,0,0,7.9-4.572l9-19A1.006,1.006,0,0,0,32,38V16h2V2H13V16h2Zm6.126,19.766A7.91,7.91,0,0,1,15,60a6.667,6.667,0,0,1-5.922-3.231c-.974-1.818-.7-4.025.8-6.3l.431-.8,11.478,5.438ZM30,37.775l-2.433,5.136A5.993,5.993,0,0,1,30,32.083ZM30,19H17V16H30ZM15,4h2v7h2V4h3v7h2V4h3v7h2V4h3V14H15Zm1.88,33.474A.99.99,0,0,0,17,37V21H30v9.069A7.982,7.982,0,0,0,26.706,44.73l-4.06,8.575L11.26,47.911Z"></path><path d="M40,36.748l-6.832,12.7c-1.888,2.832-2.191,5.768-.854,8.267A8.685,8.685,0,0,0,40.007,62a9.882,9.882,0,0,0,7.9-4.572l9-19A1.006,1.006,0,0,0,57,38V16h2V2H38V16h2Zm6.126,19.766A7.91,7.91,0,0,1,40,60a6.667,6.667,0,0,1-5.922-3.231c-.974-1.818-.705-4.025.8-6.3l.227-.422,11.5,5.447ZM55,37.775l-2.433,5.136A5.993,5.993,0,0,1,55,32.083ZM55,19H42V16H55ZM40,4h2v7h2V4h3v7h2V4h3v7h2V4h3V14H40Zm1.88,33.474A.99.99,0,0,0,42,37V21H55v9.069A7.982,7.982,0,0,0,51.706,44.73l-4.243,8.961-11.406-5.4Z"></path><rect x="19" y="23" width="2" height="2"></rect><rect x="23" y="23" width="2" height="2"></rect><polygon points="51 28 53 28 53 23 49 23 49 25 51 25 51 28"></polygon><rect x="45" y="23" width="2" height="2"></rect></g></svg>