<svg height='100px' width='100px'  fill="#000000" xmlns="http://www.w3.org/2000/svg" xmlns:xlink="http://www.w3.org/1999/xlink" version="1.1" x="0px" y="0px" viewBox="0 0 96 96" enable-background="new 0 0 96 96" xml:space="preserve"><g><path d="M13.827,78.361h12.587V36.319c0-0.276,0.224-0.5,0.5-0.5s0.5,0.224,0.5,0.5v48.436h41.172V36.319   c0-0.276,0.224-0.5,0.5-0.5s0.5,0.224,0.5,0.5v42.042h12.586V17.907l-6.664-6.662H61.105L48.454,28   c-0.082,0.177-0.259,0.289-0.453,0.289S47.63,28.177,47.548,28L34.895,11.245H20.491l-6.664,6.662V78.361z M53.655,67.543h11.558   c0.276,0,0.5,0.224,0.5,0.5s-0.224,0.5-0.5,0.5H53.655c-0.276,0-0.5-0.224-0.5-0.5S53.379,67.543,53.655,67.543z M48.001,76.313   c-1.559,0-2.828-1.269-2.828-2.827c0-1.56,1.269-2.828,2.828-2.828s2.828,1.269,2.828,2.828   C50.829,75.045,49.56,76.313,48.001,76.313z M48,64.27c-1.559,0-2.828-1.269-2.828-2.827c0-1.56,1.269-2.828,2.828-2.828   s2.828,1.269,2.828,2.828C50.828,63.001,49.56,64.27,48,64.27z M48,46.57c1.559,0,2.828,1.269,2.828,2.828   c0,1.559-1.269,2.827-2.828,2.827s-2.828-1.269-2.828-2.827C45.172,47.839,46.441,46.57,48,46.57z M30.787,67.543h11.558   c0.276,0,0.5,0.224,0.5,0.5s-0.224,0.5-0.5,0.5H30.787c-0.276,0-0.5-0.224-0.5-0.5S30.51,67.543,30.787,67.543z"></path><rect x="69.586" y="79.361" width="12.586" height="5.394"></rect><rect x="13.827" y="79.361" width="12.587" height="5.394"></rect></g></svg>