<svg height='100px' width='100px'  fill="#000000" xmlns="http://www.w3.org/2000/svg" xmlns:xlink="http://www.w3.org/1999/xlink" version="1.1" x="0px" y="0px" viewBox="0 0 24 24" enable-background="new 0 0 24 24" xml:space="preserve"><path d="M16.197,9.021c-0.455,0-0.79-0.114-1.023-0.35c-0.397-0.402-0.395-1.05-0.395-1.068V1.639c0-0.348-0.282-0.63-0.631-0.63  h-2.259c-0.349,0-0.63,0.282-0.63,0.63v1.944c0,1.019-0.278,2.233-1.603,2.233c-1.324,0-1.603-1.214-1.603-2.233V1.639  c0-0.348-0.282-0.63-0.63-0.63h-2.26c-0.348,0-0.63,0.282-0.63,0.63v5.98c0,0.006-0.001,0.647-0.39,1.046  c-0.233,0.24-0.57,0.356-1.029,0.356c-0.349,0-0.631,0.282-0.631,0.631v12.716c0,0.349,0.282,0.631,0.631,0.631h13.082  c0.349,0,0.631-0.282,0.631-0.631V9.652C16.828,9.304,16.546,9.021,16.197,9.021z M15.567,21.737H3.746V10.226  c0.52-0.099,0.957-0.326,1.301-0.68c0.756-0.775,0.75-1.839,0.748-1.942V2.27h0.998v1.313c0,2.155,1.098,3.494,2.863,3.494  s2.863-1.339,2.863-3.494V2.27h0.998v5.317c-0.003,0.119-0.008,1.183,0.748,1.958c0.345,0.354,0.781,0.582,1.302,0.68V21.737z"></path></svg>