<svg height='100px' width='100px'  fill="#000000" xmlns="http://www.w3.org/2000/svg" xmlns:xlink="http://www.w3.org/1999/xlink" version="1.1" x="0px" y="0px" viewBox="0 0 100 100" enable-background="new 0 0 100 100" xml:space="preserve"><path d="M73.724,22.779v-8.97c0-2.927-2.393-5.31-5.31-5.31h-28.91c-2.928,0-5.31,2.382-5.31,5.31v8.97  c0,2.928,2.382,5.31,5.31,5.31h28.91C71.332,28.089,73.724,25.706,73.724,22.779z"></path><path d="M61.395,74.413c-3.754-2.701-6.201-7.106-6.201-12.083c0-8.097,6.482-14.694,14.539-14.88c0.001,0,0.002,0,0.003,0  c-0.052-4.565-0.257-10.38-0.261-18.452c-0.345,0.059-0.699,0.092-1.061,0.092h-28.91c-0.361,0-0.714-0.032-1.059-0.091  c0.009,10.983,0.706,15.925-0.146,20.499c-0.843,4.526-3.208,8.548-9.131,17.45l26.922,15.55  C58.15,79.402,59.901,76.749,61.395,74.413z"></path><polygon points="69.475,28.998 69.475,28.998 69.475,28.998 "></polygon><path d="M56.194,62.33c0,4.63,2.263,8.717,5.74,11.24c4.086-6.453,6.089-10.419,7.032-14.683c0.658-2.974,0.803-6.149,0.777-10.437  C62.225,48.63,56.194,54.77,56.194,62.33z"></path><path d="M33.171,88.914C33.171,88.914,33.171,88.914,33.171,88.914c7.103,4.729,16.788,2.792,21.517-4.311  c0.293-0.44,0.565-0.848,0.847-1.271L28.62,67.786C24.204,74.849,26.197,84.26,33.171,88.914z"></path><polygon points="28.62,67.785 28.62,67.786 28.62,67.785 "></polygon></svg>