<svg height='100px' width='100px'  fill="#000000" xmlns="http://www.w3.org/2000/svg" xmlns:xlink="http://www.w3.org/1999/xlink" xml:space="preserve" style="shape-rendering:geometricPrecision;text-rendering:geometricPrecision;image-rendering:optimizeQuality;" viewBox="0 0 6.82666 6.82666" x="0px" y="0px" fill-rule="evenodd" clip-rule="evenodd"><defs><style type="text/css">
   
    .fil0 {fill:none}
    .fil1 {fill:#000000;fill-rule:nonzero}
   
  </style></defs><rect class="fil0" width="6.82666" height="6.82666"></rect><g><path class="fil1" d="M2.23416 1.90511l2.26862 -0.439209 -1.9685e-005 -9.44882e-005c0.00127165,-0.000244094 0.00254331,-0.000440945 0.00380709,-0.000594488 0.0459803,-0.00911811 0.457807,-0.0845866 0.759953,0.0757835l0.0016811 0.000799213 6.69291e-005 -0.000125984c0.000645669,0.000346457 0.00127953,0.000704724 0.00190551,0.0010748 0.0378504,0.0182717 0.305913,0.152728 0.452374,0.364276 0.139417,0.201378 0.174024,0.356138 0.179925,0.387563 0.0121181,0.0364606 0.104213,0.338071 -0.0213937,0.743264l-0.0508346 -0.015626 0.0509409 0.0157913c-0.00117323,0.0037874 -0.00273622,0.00734646 -0.00461811,0.0106535 -0.0157087,0.0338031 -0.122012,0.257346 -0.250484,0.39963 -0.0151339,0.024378 -0.117717,0.199697 -0.122272,0.479343l0.0534921 0.681114c0.0159449,0.0566772 0.133067,0.498461 -0.0586417,0.610571 -0.0276732,0.0210079 -0.256811,0.18113 -0.801366,0.167067l0.00124803 -0.053126 -0.00137795 0.053315c-0.00257087,-6.69291e-005 -0.00509449,-0.000318898 -0.00755906,-0.000732283 -0.0340197,-0.00370472 -0.189748,-0.0316299 -0.136394,-0.230736l0.0514567 0.013748 -0.0515157 -0.0138031c0.00252362,-0.00941339 0.00741339,-0.017563 0.0138583,-0.0239724 0.0124055,-0.0147913 0.0658583,-0.0819882 0.063374,-0.139795l-1.1811e-005 0 -2.3622e-005 -0.000385827 -0.000122047 3.93701e-006c-4.72441e-005,-0.00101181 -6.29921e-005,-0.00201575 -5.51181e-005,-0.00301575 -0.00318504,-0.0523701 -0.046937,-0.718783 -0.232508,-1.04354l0.046248 -0.0264567 -0.0463071 0.0264606c-0.00233071,-0.00407874 -0.00405906,-0.00833465 -0.00522047,-0.0126654 -0.0104016,-0.0270039 -0.101756,-0.226646 -0.563386,-0.332705l-7.87402e-006 3.93701e-005 -1.59956 -0.282138 0.00916535 -0.0525 -0.00926378 0.0525236c-0.0275197,-0.00485039 -0.0463583,-0.03 -0.0438543,-0.0573346l0.00257874 -1.3016 0.053126 0 -0.0533307 -0.000106299c5.11811e-005,-0.0270315 0.0202165,-0.0493228 0.0463031,-0.0527598l3.93701e-006 0zm2.27874 -0.386941l0.01 0.0522913 -2.22867 0.431476 -0.00241339 1.21772 1.55361 0.274035c0.0015315,0.000212598 0.00306693,0.000488189 0.00460236,0.000838583l-3.54331e-005 0.000161417c0.507996,0.116043 0.62526,0.358248 0.642012,0.400075 0.195441,0.34585 0.240906,1.02983 0.244386,1.08678 0.000181102,0.00141339 0.000311024,0.00284252 0.000377953,0.00429134l-0.0532717 0.00253543 0.053126 -0.0025c0.00422835,0.0887953 -0.0592677,0.177378 -0.0829921,0.207217 -0.0156496,0.0751063 0.0339291,0.0854724 0.0451811,0.0868465l0.0011063 1.5748e-005 -3.93701e-006 0.000106299c0.000712598,6.69291e-005 0.00111417,8.26772e-005 0.00112598,8.26772e-005l0 2.75591e-005c0.506508,0.0128465 0.706969,-0.125642 0.731272,-0.144012 0.0031811,-0.0028937 0.00676772,-0.00544488 0.0107283,-0.00756693l0.025185 0.0470118 -0.025 -0.046874c0.127803,-0.0684646 0.0243701,-0.446925 0.0115472,-0.491957 -0.0018189,-0.00470866 -0.00299213,-0.00975591 -0.00340551,-0.0150433l0.0531693 -0.00417717 -0.053126 0.00416535 -0.053752 -0.684441c-0.000275591,-0.00232283 -0.000409449,-0.00468898 -0.000377953,-0.00709055l0.000200787 3.93701e-006c0.00400787,-0.307358 0.119217,-0.506996 0.138551,-0.538386 0.0021063,-0.00405118 0.00477165,-0.00790157 0.008,-0.0114291l0.000181102 0.000165354c0.120106,-0.131197 0.222319,-0.347213 0.236098,-0.376933 0.115157,-0.374378 0.031315,-0.645012 0.0214094,-0.674583 -0.00159055,-0.00383465 -0.00275591,-0.00791732 -0.0034252,-0.0121969l0.0526929 -0.00824803 -0.0525 0.00812598c-6.29921e-005,-0.000413386 -0.0210118,-0.143528 -0.163441,-0.349264 -0.131433,-0.189843 -0.37674,-0.312472 -0.410488,-0.328732 -0.00222047,-0.000830709 -0.00440945,-0.00181102 -0.00655512,-0.00295669l9.84252e-005 -0.000181102c-0.269185,-0.143791 -0.646638,-0.0748307 -0.69035,-0.0661772 -0.00153937,0.000444882 -0.00311417,0.000830709 -0.00472047,0.00114173l-0.0101378 -0.0523622 3.93701e-006 -3.93701e-006z"></path><path class="fil1" d="M4.86025 2.02856c0.159083,0 0.303118,0.0644921 0.407374,0.168744 0.104252,0.104256 0.168744,0.248291 0.168744,0.407374 0,0.159083 -0.0644882,0.303114 -0.168744,0.40737 -0.104256,0.104256 -0.248291,0.168748 -0.407374,0.168748 -0.159083,0 -0.303118,-0.0644921 -0.40737,-0.168748 -0.104256,-0.104252 -0.168748,-0.248287 -0.168748,-0.40737 0,-0.159083 0.0644921,-0.303118 0.168748,-0.407374 0.104256,-0.104256 0.248287,-0.168744 0.40737,-0.168744zm0.331957 0.244161c-0.0849488,-0.0849449 -0.202319,-0.137492 -0.331957,-0.137492 -0.129638,0 -0.247008,0.0525472 -0.331953,0.137492 -0.0849488,0.0849488 -0.137496,0.202319 -0.137496,0.331957 0,0.129638 0.0525472,0.247008 0.137496,0.331953 0.0849449,0.0849488 0.202315,0.137496 0.331953,0.137496 0.129638,0 0.247008,-0.0525472 0.331957,-0.137496 0.0849449,-0.0849449 0.137492,-0.202315 0.137492,-0.331953 0,-0.129638 -0.0525472,-0.247008 -0.137492,-0.331957z"></path><path class="fil1" d="M4.38728 3.89565l0.0727717 0c0.019563,-0.000232283 0.0385236,0.0103425 0.0480906,0.0289173l-0.000114173 5.90551e-005c0.0336378,0.0653189 0.0624213,0.140138 0.0870197,0.219173 0.0238504,0.0766417 0.0439528,0.157894 0.0608268,0.238563 0.00134252,0.00467717 0.00206299,0.00961417 0.00206299,0.0147244 0,0.0294528 -0.0238819,0.0533346 -0.0533346,0.0533346l-0.217323 0c-0.0294528,0 -0.0533346,-0.0238819 -0.0533346,-0.0533346l0 -0.448102c0,-0.0294528 0.0238819,-0.0533346 0.0533346,-0.0533346zm0.0533346 0.135386l0 0.312717 0.0978465 0c-0.0131575,-0.0570079 -0.0281142,-0.113756 -0.0450827,-0.168283 -0.0158583,-0.0509606 -0.0333976,-0.0996772 -0.0527638,-0.144433z"></path><path class="fil1" d="M0.926039 1.99981c-0.0291063,0.00402362 -0.0494409,0.0308937 -0.0454173,0.06 0.00402362,0.0291063 0.0308937,0.0494409 0.06,0.0454173 0.179012,-0.0248701 0.291457,0.0323976 0.40413,0.0897835 0.164402,0.0837323 0.329276,0.167701 0.667827,0.0521496 0.0278425,-0.00943307 0.0427677,-0.0396575 0.0333346,-0.0675 -0.00943307,-0.0278425 -0.0396575,-0.0427677 -0.0675,-0.0333346 -0.296016,0.101031 -0.440882,0.0272559 -0.585331,-0.046315 -0.127469,-0.0649213 -0.254673,-0.129705 -0.467043,-0.100201z"></path><path class="fil1" d="M0.926039 2.42981c-0.0291063,0.00402362 -0.0494409,0.0308937 -0.0454173,0.06 0.00402362,0.0291063 0.0308937,0.0494409 0.06,0.0454173 0.179012,-0.0248701 0.291457,0.0323976 0.40413,0.0897835 0.164402,0.0837323 0.329276,0.167701 0.667827,0.0521496 0.0278425,-0.00943307 0.0427677,-0.0396575 0.0333346,-0.0675 -0.00943307,-0.0278425 -0.0396575,-0.0427677 -0.0675,-0.0333346 -0.296016,0.101031 -0.440882,0.0272559 -0.585331,-0.046315 -0.127469,-0.0649213 -0.254673,-0.129705 -0.467043,-0.100201z"></path><path class="fil1" d="M0.926039 2.85981c-0.0291063,0.00402362 -0.0494409,0.0308937 -0.0454173,0.06 0.00402362,0.0291063 0.0308937,0.0494409 0.06,0.0454173 0.179012,-0.0248701 0.291457,0.0323976 0.404126,0.0897835 0.164406,0.0837362 0.32928,0.167705 0.667831,0.0521496 0.0278425,-0.00943307 0.0427677,-0.0396575 0.0333346,-0.0675 -0.00943307,-0.0278425 -0.0396575,-0.0427677 -0.0675,-0.0333346 -0.296016,0.101039 -0.440882,0.0272598 -0.585335,-0.046315 -0.127465,-0.0649213 -0.254669,-0.129705 -0.467039,-0.100201z"></path></g></svg>