<svg height='100px' width='100px'  fill="#000000" xmlns="http://www.w3.org/2000/svg" data-name="Layer 1" viewBox="0 0 100 100" x="0px" y="0px"><title>cleaning</title><path d="M87.43,62.76A1,1,0,0,0,86.26,62c-39.86,6.76-71.45-.6-71.76-.67a1,1,0,0,0-1.19.59l-2.06,4.82a1,1,0,0,0,0,.84,1.09,1.09,0,0,0,.64.55c13.9,4.2,28.28,5.49,40.74,5.49A179.38,179.38,0,0,0,88,70.18,1,1,0,0,0,88.81,69ZM13.6,66.45l1.27-3c5.29,1.12,34.57,6.63,70.76.68l.94,4.21C80.3,69.64,45.83,75.81,13.6,66.45Z"></path><path d="M87.42,46.9,84.49,36.33a9.9,9.9,0,0,0-3.19-5c-3.63-3-10.83-6.21-24.56-4.44-6.88.89-14.24,3.94-21.34,8.82h0a6.84,6.84,0,0,0-8.72,4.53l-.21.71A29.36,29.36,0,0,0,13.29,56.44,1,1,0,0,0,14,57.81c.21,0,14.78,3.27,37.21,3.27a234.49,234.49,0,0,0,34.65-2.57,1,1,0,0,0,.85-1.29l-1.91-7,2.33-2.33A1,1,0,0,0,87.42,46.9ZM83,49.2a1.05,1.05,0,0,0-.27,1l1.76,6.44C49,61.78,21.59,57.18,15.67,56A27.39,27.39,0,0,1,27.75,42.62a1.07,1.07,0,0,0,.56-.64l.34-1.14a4.77,4.77,0,0,1,6.09-3.16l.5.17a1,1,0,0,0,.92-.14c7-4.86,14.16-7.89,20.85-8.75,13.68-1.77,20.26,1.73,23,4a7.77,7.77,0,0,1,2.52,3.94l2.77,10Z"></path><path d="M68.4,32.72c-5.51-.48-19-.57-25,8.88a2.54,2.54,0,0,0-.08,2.57,2.45,2.45,0,0,0,2.18,1.29h12a1,1,0,0,0,.73-.3l1-1a6.77,6.77,0,0,1,9.85.29,1,1,0,0,0,.77.34h3.44a1,1,0,0,0,.8-.38,1,1,0,0,0,.21-.86l-1.46-6.8A5,5,0,0,0,68.4,32.72Zm2,10a8.85,8.85,0,0,0-12.53,0l-.72.72H45.55a.4.4,0,0,1-.37-.22.47.47,0,0,1,0-.48c4.33-6.83,13.28-8.09,19.28-8.09,1.46,0,2.75.08,3.75.16a3,3,0,0,1,2.68,2.39l1.19,5.55Z"></path></svg>