<svg height='100px' width='100px'  fill="#000000" xmlns="http://www.w3.org/2000/svg" class="icon" viewBox="0 0 1024 1024" version="1.1" x="0px" y="0px"><path d="M874.4 109.5c11.9 0 23.9 11.9 23.9 23.9v764c0 11.9-11.9 23.9-23.9 23.9H253.6c-11.9 0-23.9-11.9-23.9-23.9v-764c0-11.9 11.9-23.9 23.9-23.9h620.8m0-47.7H253.6c-40.6 0-71.6 33.4-71.6 71.6v764c0 40.6 31 71.6 71.6 71.6h620.8c40.6 0 71.6-31 71.6-71.6v-764c0-38.2-31-71.6-71.6-71.6z"></path><path d="M874.4 109.5c11.9 0 23.9 11.9 23.9 23.9v95.5H229.8v-95.5c0-11.9 11.9-23.9 23.9-23.9h620.7m0-47.7H253.6c-40.6 0-71.6 33.4-71.6 71.6v143.2h764V133.4c0-38.2-31-71.6-71.6-71.6z"></path><path d="M826.6 157.2v23.9H683.4v-23.9h143.2m0-23.8H683.4c-14.3 0-23.9 9.5-23.9 23.9v23.9c0 14.3 9.6 23.9 23.9 23.9h143.2c14.3 0 23.9-9.5 23.9-23.9v-23.9c0-14.4-9.6-23.9-23.9-23.9zM313.3 152.5c9.5 0 19.1 7.2 19.1 19.1s-7.2 19.1-19.1 19.1-19.1-7.2-19.1-19.1 9.6-19.1 19.1-19.1m0-19.1c-19.1 0-35.8 16.7-35.8 35.8s16.7 35.8 35.8 35.8 35.8-16.7 35.8-35.8-16.7-35.8-35.8-35.8zM408.8 152.5c9.5 0 19.1 7.2 19.1 19.1s-7.2 19.1-19.1 19.1-19.1-7.2-19.1-19.1 9.6-19.1 19.1-19.1m0-19.1c-19.1 0-35.8 16.7-35.8 35.8s16.7 35.8 35.8 35.8 35.8-16.7 35.8-35.8-16.7-35.8-35.8-35.8zM504.3 152.5c9.5 0 19.1 7.2 19.1 19.1s-7.2 19.1-19.1 19.1-19.1-7.2-19.1-19.1 9.6-19.1 19.1-19.1m0-19.1c-19.1 0-35.8 16.7-35.8 35.8s16.7 35.8 35.8 35.8 35.8-16.7 35.8-35.8-16.7-35.8-35.8-35.8zM564 357.8c126.5 0 229.2 102.7 229.2 229.2S690.5 816.2 564 816.2 334.8 713.5 334.8 587 437.5 357.8 564 357.8m0-33.4c-145.6 0-262.6 117-262.6 262.6s117 262.6 262.6 262.6 262.6-117 262.6-262.6-117-262.6-262.6-262.6z"></path><path d="M564 419.9c93.1 0 167.1 74 167.1 167.1s-74 167.1-167.1 167.1-167.1-74-167.1-167.1 74-167.1 167.1-167.1m0-23.9c-105 0-191 86-191 191 0 105.1 86 191 191 191 105.1 0 191-85.9 191-191s-85.9-191-191-191z"></path><path d="M731.1 646.7c-31 0-47.8-14.3-64.5-26.3-14.3-11.9-23.9-21.5-47.8-21.5s-35.8 9.6-47.8 21.5c-14.3 11.9-31 26.3-64.5 26.3s-47.8-14.3-64.5-26.3c-14.3-11.9-23.9-21.5-47.8-21.5-7.2 0-11.9-4.8-11.9-11.9s4.8-11.9 11.9-11.9c31 0 47.8 14.3 64.5 26.3 14.3 11.9 23.9 21.5 47.8 21.5s35.8-9.6 47.7-21.5c14.3-11.9 31-26.3 64.5-26.3 33.4 0 47.8 14.3 64.5 26.3 14.3 11.9 23.9 21.5 47.8 21.5 7.2 0 11.9 4.8 11.9 11.9s-4.6 11.9-11.8 11.9z"></path></svg>